<svg width="820" height="64" viewBox="0 0 820 64" fill="none" xmlns="http://www.w3.org/2000/svg">
<path d="M11.8041 54.402L7.31006 4H56.6901L52.1901 54.394L31.9701 60L11.8041 54.402Z" fill="#E44F26"/>
<path d="M32 55.7161L48.34 51.1861L52.184 8.12207H32V55.7161Z" fill="#F1662A"/>
<path d="M32 26.814H23.82L23.256 20.484H32V14.302H16.5L16.648 15.962L18.166 32.996H32V26.814ZM32 42.868L31.972 42.876L25.088 41.018L24.648 36.088H18.442L19.308 45.792L31.972 49.308L32 49.3V42.868Z" fill="#EBEBEB"/>
<path d="M31.978 26.814V32.996H39.59L38.874 41.014L31.978 42.874V49.306L44.652 45.792L44.744 44.748L46.196 28.474L46.348 26.814H31.978ZM31.978 14.302V20.484H46.91L47.034 19.096L47.316 15.962L47.464 14.302H31.978Z" fill="white"/>
<path d="M95.804 54.402L91.312 4H140.688L136.19 54.394L115.97 60L95.804 54.402Z" fill="#1572B6"/>
<path d="M116 55.7161L132.34 51.1861L136.184 8.12207H116V55.7161Z" fill="#33A9DC"/>
<path d="M116 26.3821H124.18L124.744 20.0521H116V13.8701H131.5L131.352 15.5281L129.834 32.5641H116V26.3821Z" fill="white"/>
<path d="M116.038 42.4361L116.01 42.4441L109.126 40.5841L108.686 35.6541H102.48L103.346 45.3601L116.008 48.8761L116.038 48.8681V42.4361Z" fill="#EBEBEB"/>
<path d="M123.654 32.302L122.91 40.58L116.016 42.44V48.872L128.688 45.36L128.782 44.316L129.856 32.302H123.654Z" fill="white"/>
<path d="M116.022 13.8701V20.0521H101.09L100.966 18.6621L100.684 15.5281L100.536 13.8701H116.022ZM116 26.3821V32.5641H109.202L109.078 31.1741L108.798 28.0401L108.65 26.3821H116Z" fill="#EBEBEB"/>
<g clip-path="url(#clip0_1351_2495)">
<path d="M217 0H183C174.716 0 168 6.71573 168 15V49C168 57.2843 174.716 64 183 64H217C225.284 64 232 57.2843 232 49V15C232 6.71573 225.284 0 217 0Z" fill="#242938"/>
<path fill-rule="evenodd" clip-rule="evenodd" d="M188.75 27.5C190.25 21.5 194 18.5 200 18.5C209 18.5 210.125 25.25 214.625 26.375C217.625 27.1252 220.25 26.0002 222.5 23C221 28.9998 217.25 32 211.25 32C202.25 32 201.125 25.25 196.625 24.125C193.625 23.375 191 24.5 188.75 27.5ZM177.5 41C179 35.0002 182.75 32 188.75 32C197.75 32 198.875 38.75 203.375 39.875C206.375 40.6252 209 39.5002 211.25 36.5C209.75 42.4998 206 45.5 200 45.5C191 45.5 189.875 38.75 185.375 37.625C182.375 36.8748 179.75 37.9998 177.5 41Z" fill="url(#paint0_linear_1351_2495)"/>
</g>
<g clip-path="url(#clip1_1351_2495)">
<path d="M252 0H316V64H252V0Z" fill="#F7DF1E"/>
<path d="M268.828 53.4831L273.725 50.5191C274.67 52.1943 275.53 53.6118 277.592 53.6118C279.568 53.6118 280.814 52.8388 280.814 49.8318V29.3823H286.828V49.9168C286.828 56.1461 283.177 58.9816 277.849 58.9816C273.038 58.9816 270.245 56.4898 268.828 53.4826M290.095 52.8386L294.992 50.0033C296.281 52.1086 297.957 53.6551 300.921 53.6551C303.413 53.6551 305.002 52.4091 305.002 50.6906C305.002 48.6286 303.37 47.8981 300.62 46.6956L299.117 46.0506C294.778 44.2038 291.899 41.8838 291.899 36.9863C291.899 32.4753 295.336 29.0383 300.706 29.0383C304.53 29.0383 307.279 30.3703 309.255 33.8501L304.572 36.8576C303.541 35.0103 302.425 34.2801 300.706 34.2801C298.945 34.2801 297.828 35.3971 297.828 36.8576C297.828 38.6618 298.945 39.3926 301.522 40.5096L303.026 41.1538C308.138 43.3451 311.016 45.5788 311.016 50.6048C311.016 56.0183 306.763 58.9823 301.05 58.9823C295.465 58.9823 291.856 56.3188 290.095 52.8388" fill="black"/>
</g>
<g clip-path="url(#clip2_1351_2495)">
<path d="M385 0H351C342.716 0 336 6.71573 336 15V49C336 57.2843 342.716 64 351 64H385C393.284 64 400 57.2843 400 49V15C400 6.71573 393.284 0 385 0Z" fill="#242938"/>
<path d="M368 36.7377C370.576 36.7377 372.664 34.6494 372.664 32.0737C372.664 29.4979 370.576 27.4097 368 27.4097C365.424 27.4097 363.336 29.4979 363.336 32.0737C363.336 34.6494 365.424 36.7377 368 36.7377Z" fill="#00D8FF"/>
<path d="M368 22.5908C374.262 22.5908 380.08 23.4893 384.466 24.9996C389.751 26.8188 393 29.5766 393 32.0738C393 34.6761 389.556 37.6058 383.881 39.4861C379.591 40.9076 373.945 41.6496 368 41.6496C361.906 41.6496 356.135 40.9531 351.796 39.4703C346.306 37.5941 343 34.6266 343 32.0738C343 29.5968 346.102 26.8603 351.313 25.0438C355.715 23.5088 361.676 22.5908 368 22.5908H368Z" stroke="#00D8FF" stroke-width="2.22775"/>
<path d="M359.745 27.3595C362.874 21.935 366.558 17.3445 370.057 14.2995C374.273 10.6302 378.286 9.19325 380.449 10.4405C382.703 11.7405 383.521 16.1875 382.315 22.043C381.403 26.4697 379.225 31.7312 376.255 36.8807C373.21 42.1602 369.724 46.8117 366.272 49.8287C361.905 53.6467 357.682 55.0285 355.471 53.7532C353.325 52.5167 352.504 48.4615 353.534 43.0402C354.404 38.4595 356.586 32.8372 359.744 27.3595H359.745Z" stroke="#00D8FF" stroke-width="2.22775"/>
<path d="M359.753 36.8944C356.616 31.4759 354.48 25.9904 353.588 21.4379C352.515 15.9526 353.274 11.7589 355.435 10.5079C357.687 9.2039 361.948 10.7164 366.418 14.6859C369.798 17.6869 373.269 22.2011 376.247 27.3456C379.301 32.6201 381.589 37.9639 382.48 42.4609C383.606 48.1519 382.694 52.5001 380.485 53.7789C378.342 55.0199 374.419 53.7061 370.236 50.1066C366.702 47.0656 362.921 42.3669 359.753 36.8944Z" stroke="#00D8FF" stroke-width="2.22775"/>
</g>
<g clip-path="url(#clip3_1351_2495)">
<path fill-rule="evenodd" clip-rule="evenodd" d="M420 32C420 26.4782 421.429 21.0505 424.148 16.2445C426.867 11.4385 430.783 7.41781 435.516 4.57343C440.249 1.72905 445.637 0.157756 451.157 0.0123237C456.677 -0.133108 462.141 1.15228 467.017 3.74349C471.893 6.33471 476.015 10.1436 478.983 14.7997C481.952 19.4559 483.665 24.8009 483.956 30.315C484.247 35.8291 483.106 41.3247 480.644 46.2674C478.182 51.2101 474.483 55.4316 469.907 58.5216L440.937 17.9627C440.674 17.5948 440.302 17.3199 439.873 17.1774C439.444 17.0349 438.981 17.0323 438.55 17.1699C438.12 17.3075 437.744 17.5783 437.478 17.9431C437.211 18.308 437.067 18.7481 437.067 19.2V51.2H441.333V25.856L466.208 60.6806C461.329 63.0984 455.913 64.231 450.474 63.9713C445.034 63.7116 439.751 62.068 435.125 59.1963C430.498 56.3245 426.68 52.3196 424.034 47.5605C421.387 42.8014 419.999 37.4456 420 32ZM462.667 42.6667V17.0667H466.933V42.6667H462.667Z" fill="black"/>
</g>
<g clip-path="url(#clip4_1351_2495)">
<path d="M553 0H519C510.716 0 504 6.71573 504 15V49C504 57.2843 510.716 64 519 64H553C561.284 64 568 57.2843 568 49V15C568 6.71573 561.284 0 553 0Z" fill="#242938"/>
<path d="M533.969 7.77903C535.199 7.07528 536.801 7.07203 538.029 7.77903C544.21 11.2715 550.392 14.7583 556.572 18.2528C557.734 18.9075 558.511 20.201 558.5 21.5403V42.5515C558.508 43.9463 557.654 45.2708 556.428 45.9105C550.268 49.3838 544.11 52.861 537.951 56.3343C536.696 57.0518 535.063 56.9965 533.847 56.22C532 55.1495 530.15 54.084 528.303 53.0145C527.925 52.7895 527.5 52.6105 527.233 52.2445C527.469 51.927 527.89 51.8875 528.233 51.7488C529.003 51.5035 529.712 51.11 530.42 50.7283C530.599 50.6058 530.817 50.6528 530.989 50.7623C532.568 51.6678 534.134 52.5998 535.718 53.4965C536.056 53.6918 536.399 53.4325 536.688 53.2715C542.733 49.8548 548.785 46.4513 554.829 43.0335C555.053 42.9258 555.177 42.688 555.159 42.4428C555.163 35.5115 555.16 28.5793 555.161 21.6478C555.187 21.3698 555.026 21.1138 554.774 20.9998C548.635 17.5425 542.499 14.0803 536.361 10.6223C536.255 10.5491 536.129 10.5098 536 10.5096C535.871 10.5094 535.745 10.5482 535.638 10.621C529.5 14.0803 523.366 17.546 517.228 21.0028C516.977 21.117 516.809 21.3688 516.839 21.6478C516.84 28.5793 516.839 35.5115 516.839 42.4438C516.828 42.5635 516.854 42.6836 516.914 42.788C516.974 42.8923 517.064 42.9758 517.173 43.0273C518.81 43.956 520.45 44.8783 522.089 45.804C523.013 46.3008 524.146 46.5963 525.164 46.2155C526.061 45.8935 526.691 44.9773 526.674 44.0243C526.682 37.1335 526.669 30.2418 526.68 23.3518C526.657 23.046 526.948 22.7933 527.245 22.8223C528.032 22.8168 528.82 22.8115 529.607 22.8243C529.936 22.8168 530.162 23.1463 530.121 23.4543C530.118 30.3888 530.13 37.3233 530.116 44.2575C530.118 46.1058 529.359 48.1168 527.649 49.021C525.543 50.1118 522.94 49.8805 520.86 48.8345C519.059 47.9355 517.34 46.8745 515.571 45.9115C514.341 45.2753 513.491 43.9455 513.5 42.5518V21.5403C513.487 20.1733 514.295 18.8563 515.494 18.211C521.653 14.7353 527.811 11.2565 533.969 7.77903Z" fill="#81CD39"/>
<path d="M539.343 22.3337C542.029 22.1607 544.905 22.2312 547.322 23.5547C549.194 24.5687 550.231 26.6972 550.264 28.7764C550.212 29.0567 549.919 29.2114 549.651 29.1922C548.872 29.1912 548.092 29.2029 547.313 29.1869C546.982 29.1997 546.79 28.8949 546.749 28.6027C546.525 27.6077 545.982 26.6224 545.046 26.1424C543.608 25.4229 541.942 25.4592 540.374 25.4742C539.23 25.5347 537.999 25.6339 537.03 26.3067C536.286 26.8164 536.06 27.8454 536.325 28.6742C536.576 29.2692 537.262 29.4612 537.825 29.6382C541.062 30.4849 544.492 30.4004 547.668 31.5147C548.983 31.9689 550.269 32.8522 550.719 34.2287C551.307 36.0737 551.049 38.2787 549.737 39.7597C548.672 40.9784 547.122 41.6419 545.576 42.0022C543.519 42.4609 541.384 42.4727 539.295 42.2689C537.331 42.0449 535.286 41.5289 533.77 40.1907C532.473 39.0647 531.84 37.3102 531.903 35.6172C531.918 35.3312 532.203 35.1317 532.477 35.1552C533.261 35.1489 534.046 35.1467 534.831 35.1564C535.145 35.1339 535.377 35.4049 535.393 35.7004C535.538 36.6482 535.894 37.6432 536.721 38.2049C538.316 39.2342 540.318 39.1637 542.144 39.1924C543.657 39.1254 545.356 39.1052 546.591 38.1049C547.242 37.5344 547.435 36.5799 547.259 35.7589C547.069 35.0657 546.343 34.7427 545.721 34.5314C542.525 33.5207 539.056 33.8874 535.891 32.7442C534.606 32.2902 533.364 31.4317 532.87 30.1117C532.181 28.2434 532.497 25.9324 533.947 24.5017C535.361 23.0779 537.402 22.5297 539.343 22.3337Z" fill="#81CD39"/>
</g>
<g clip-path="url(#clip5_1351_2495)">
<path d="M637 0H603C594.716 0 588 6.71573 588 15V49C588 57.2843 594.716 64 603 64H637C645.284 64 652 57.2843 652 49V15C652 6.71573 645.284 0 637 0Z" fill="#242938"/>
<mask id="mask0_1351_2495" style="mask-type:luminance" maskUnits="userSpaceOnUse" x="603" y="7" width="34" height="50">
<path d="M603.25 7H636.59V57H603.25V7Z" fill="white"/>
</mask>
<g mask="url(#mask0_1351_2495)">
<path d="M611.587 57C616.187 57 619.92 53.2668 619.92 48.6668V40.3333H611.587C606.987 40.3333 603.253 44.0668 603.253 48.6668C603.253 53.2668 606.987 57 611.587 57Z" fill="#0ACF83"/>
<path d="M603.253 32C603.253 27.4 606.987 23.6667 611.587 23.6667H619.92V40.3332H611.587C606.987 40.3332 603.253 36.6 603.253 32Z" fill="#A259FF"/>
<path d="M603.253 15.3333C603.253 10.7333 606.987 7 611.587 7H619.92V23.6667H611.587C606.987 23.6667 603.253 19.9332 603.253 15.3333Z" fill="#F24E1E"/>
<path d="M619.92 7H628.253C632.853 7 636.587 10.7333 636.587 15.3333C636.587 19.9332 632.853 23.6667 628.253 23.6667H619.92V7Z" fill="#FF7262"/>
<path d="M636.587 32C636.587 36.6 632.853 40.3332 628.253 40.3332C623.653 40.3332 619.92 36.6 619.92 32C619.92 27.4 623.653 23.6667 628.253 23.6667C632.853 23.6667 636.587 27.4 636.587 32Z" fill="#1ABCFE"/>
</g>
</g>
<path d="M730.944 29.5059L706.494 5.05591C706.159 4.72029 705.762 4.454 705.324 4.2723C704.887 4.0906 704.418 3.99707 703.944 3.99707C703.47 3.99707 703.001 4.0906 702.563 4.2723C702.126 4.454 701.728 4.72029 701.394 5.05591L696.316 10.1339L702.756 16.5739C703.515 16.3155 704.332 16.2756 705.113 16.4587C705.894 16.6419 706.608 17.0407 707.173 17.6098C707.739 18.1789 708.133 18.8954 708.311 19.6776C708.489 20.4598 708.443 21.2762 708.18 22.0339L714.38 28.2339C715.307 27.9155 716.315 27.9243 717.236 28.2589C718.157 28.5934 718.935 29.2334 719.442 30.0723C719.948 30.9112 720.152 31.8983 720.019 32.8692C719.886 33.84 719.424 34.736 718.711 35.4077C717.997 36.0795 717.075 36.4865 716.098 36.561C715.121 36.6355 714.148 36.3729 713.341 35.8169C712.534 35.261 711.942 34.4454 711.663 33.5059C711.385 32.5664 711.436 31.5599 711.81 30.6539L706.02 24.8639V40.0979C706.897 40.5325 707.599 41.2544 708.008 42.1435C708.418 43.0326 708.51 44.0351 708.27 44.9841C708.03 45.9331 707.473 46.7713 706.69 47.359C705.907 47.9467 704.947 48.2485 703.968 48.2141C702.99 48.1798 702.053 47.8113 701.314 47.17C700.574 46.5288 700.077 45.6535 699.904 44.69C699.731 43.7265 699.894 42.733 700.365 41.8749C700.836 41.0167 701.587 40.3458 702.492 39.9739V24.5999C701.968 24.385 701.492 24.0686 701.091 23.6688C700.69 23.2691 700.372 22.794 700.156 22.2709C699.939 21.7478 699.828 21.1869 699.829 20.6208C699.83 20.0546 699.943 19.4942 700.162 18.9719L693.822 12.6279L677.056 29.3999C676.72 29.7344 676.453 30.1319 676.272 30.5697C676.09 31.0075 675.996 31.4769 675.996 31.9509C675.996 32.425 676.09 32.8943 676.272 33.3321C676.453 33.7699 676.72 34.1674 677.056 34.5019L701.506 58.9439C701.84 59.2795 702.238 59.5458 702.675 59.7275C703.113 59.9092 703.582 60.0027 704.056 60.0027C704.53 60.0027 704.999 59.9092 705.436 59.7275C705.874 59.5458 706.271 59.2795 706.606 58.9439L730.944 34.5999C731.28 34.2654 731.546 33.8679 731.728 33.4301C731.91 32.9923 732.004 32.523 732.004 32.0489C732.004 31.5749 731.91 31.1055 731.728 30.6677C731.546 30.2299 731.28 29.8324 730.944 29.4979" fill="#DD4C35"/>
<path d="M696.316 10.134L702.756 16.574C703.515 16.3156 704.332 16.2757 705.113 16.4588C705.894 16.642 706.608 17.0408 707.173 17.6099C707.739 18.179 708.133 18.8955 708.311 19.6777C708.489 20.4599 708.443 21.2763 708.18 22.034L714.38 28.234C715.307 27.9157 716.315 27.9245 717.236 28.259C718.157 28.5935 718.935 29.2335 719.442 30.0724C719.948 30.9113 720.152 31.8985 720.019 32.8693C719.886 33.8401 719.424 34.7361 718.711 35.4079C717.997 36.0796 717.075 36.4867 716.098 36.5611C715.121 36.6356 714.148 36.373 713.341 35.8171C712.534 35.2612 711.942 34.4455 711.663 33.506C711.385 32.5666 711.437 31.56 711.81 30.654L706.02 24.864V40.098C706.897 40.5326 707.599 41.2545 708.008 42.1436C708.418 43.0327 708.51 44.0352 708.27 44.9842C708.031 45.9332 707.473 46.7714 706.69 47.3591C705.907 47.9468 704.947 48.2486 703.969 48.2143C702.99 48.1799 702.053 47.8114 701.314 47.1702C700.574 46.5289 700.077 45.6537 699.904 44.6902C699.731 43.7267 699.894 42.7331 700.365 41.875C700.836 41.0168 701.587 40.3459 702.492 39.974V24.6C701.968 24.3851 701.492 24.0687 701.091 23.669C700.69 23.2692 700.372 22.7941 700.156 22.271C699.939 21.7479 699.828 21.1871 699.829 20.6209C699.83 20.0547 699.943 19.4943 700.162 18.972L693.822 12.628" fill="white"/>
<g clip-path="url(#clip6_1351_2495)">
<path d="M805 0H771C762.716 0 756 6.71573 756 15V49C756 57.2843 762.716 64 771 64H805C813.284 64 820 57.2843 820 49V15C820 6.71573 813.284 0 805 0Z" fill="#242938"/>
<path d="M764.429 25.0521C764.429 25.0521 763.245 24.1988 764.666 23.0596L767.975 20.1006C767.975 20.1006 768.922 19.1043 769.923 19.9723L800.46 43.0921V54.1786C800.46 54.1786 800.445 55.9196 798.211 55.7271L764.429 25.0521Z" fill="#2489CA"/>
<path d="M772.3 32.198L764.429 39.3537C764.429 39.3537 763.62 39.9555 764.429 41.0307L768.083 44.3545C768.083 44.3545 768.951 45.2867 770.233 44.2262L778.578 37.899L772.3 32.198Z" fill="#1070B3"/>
<path d="M786.118 32.2572L800.554 21.2347L800.46 10.2075C800.46 10.2075 799.843 7.80074 797.787 9.05349L778.578 26.5362L786.118 32.2572Z" fill="#0877B9"/>
<path d="M798.211 55.7419C799.05 56.5999 800.066 56.3189 800.066 56.3189L811.315 50.7757C812.755 49.7942 812.553 48.5762 812.553 48.5762V15.4744C812.553 14.0194 811.063 13.5167 811.063 13.5167L801.313 8.81668C799.183 7.49993 797.787 9.05343 797.787 9.05343C797.787 9.05343 799.582 7.76143 800.46 10.2074V53.9762C800.461 54.2747 800.396 54.5697 800.268 54.8394C800.011 55.3572 799.454 55.8404 798.118 55.6382L798.211 55.7419Z" fill="#3C99D4"/>
</g>
<defs>
<linearGradient id="paint0_linear_1351_2495" x1="189.625" y1="18.5" x2="208.875" y2="46.375" gradientUnits="userSpaceOnUse">
<stop stop-color="#32B1C1"/>
<stop offset="1" stop-color="#14C6B7"/>
</linearGradient>
<clipPath id="clip0_1351_2495">
<rect width="64" height="64" fill="white" transform="translate(168)"/>
</clipPath>
<clipPath id="clip1_1351_2495">
<rect width="64" height="64" fill="white" transform="translate(252)"/>
</clipPath>
<clipPath id="clip2_1351_2495">
<rect width="64" height="64" fill="white" transform="translate(336)"/>
</clipPath>
<clipPath id="clip3_1351_2495">
<rect width="64" height="64" fill="white" transform="translate(420)"/>
</clipPath>
<clipPath id="clip4_1351_2495">
<rect width="64" height="64" fill="white" transform="translate(504)"/>
</clipPath>
<clipPath id="clip5_1351_2495">
<rect width="64" height="64" fill="white" transform="translate(588)"/>
</clipPath>
<clipPath id="clip6_1351_2495">
<rect width="64" height="64" fill="white" transform="translate(756)"/>
</clipPath>
</defs>
</svg>
